{"title":"Nanny - Series 1 (BBC 1981) DVD Rip","uid":6230310,"size":5426027614,"categoryP":"video","categoryS":"tv_shows","magnet":"?xt=urn:btih:7d7fa35a9f71a0f60b36e7fdca70eda939767394&amp;dn=Nanny+-+Series+1+%28BBC+1981%29+DVD+Rip&amp;tr=udp%3A%2F%2Ftracker.openbittorrent.com%3A80&amp;tr=udp%3A%2F%2Fopen.demonii.com%3A1337&amp;tr=udp%3A%2F%2Ftracker.coppersurfer.tk%3A6969&amp;tr=udp%3A%2F%2Fexodus.desync.com%3A6969","seeders":0,"leechers":1,"uploader":"ronbot","files":15,"time":1299684927,"description":"Wendy Craig stars as Barbara Gray, a Nanny caring for the children of the rich and well-connected in 1930s post-war Britain. Always on hand to solve problems and offer good old fashioned advice, all with a British 'stiff upper lip'.\n\nWhen Wendy Craig, who both acted in and created the show, submitted her proposal for the series to the BBC, she used the pseudonym Jonathan Marr because she was afraid that if her true identity was known, she would be dismissed as merely &quot;an actress who thinks she can write&quot;.\n\nEpisode 01: Innocent Party\nEpisode 02: Now Look What You've Done\nEpisode 03: Just Somebody Being Naughty\nEpisode 04: The Magic Island\nEpisode 05: Trompe L'Oeil\nEpisode 06: Goats and Tigers\nEpisode 07: Waifs and Strays\nEpisode 08: A Birdless Cage\nEpisode 09: A Pinch of Dragon's Blood\nEpisode 10: Other Peoples' Babies\n\n1 Innocent Party.avi\nFormat : AVI\nFormat/Info : Audio Video Interleave\nFile size : 520 MiB\nDuration : 51mn 32s\nOverall bit rate : 1 411 Kbps\nWriting application : VirtualDubMod 1.5.4.1 (build 2178/release)\nWriting library : VirtualDubMod build 2178/release\nVideo #0\nID : 0\nFormat : MPEG-4 Visual\nFormat profile : AdvancedSimple@L5\nFormat settings, BVOP : Yes\nFormat settings, QPel : No\nFormat settings, GMC : No warppoints\nFormat settings, Matrix : Custom\nCodec ID : XVID\nCodec ID/Hint : XviD\nDuration : 51mn 32s\nBit rate : 1 337 Kbps\nWidth : 640 pixels\nHeight : 480 pixels\nDisplay aspect ratio : 4:3\nFrame rate : 25.000 fps\nResolution : 24 bits\nColorimetry : 4:2:0\nScan type : Progressive\nBits/(Pixel*Frame) : 0.174\nStream size : 493 MiB (95%)\nWriting library : XviD 1.2.1 (UTC 2008-12-04)\nAudio #1\nID : 1\nFormat : MPEG Audio\nFormat version : Version 1\nFormat profile : Layer 3\nCodec ID : 55\nCodec ID/Hint : MP3\nDuration : 51mn 32s\nBit rate mode : Variable\nBit rate : 60.5 Kbps\nNominal bit rate : 64.0 Kbps\nChannel(s) : 1 channel\nSampling rate : 48.0 KHz\nResolution : 16 bits\nStream size : 22.3 MiB (4%)\nAlignment : Aligned on interleaves\nInterleave, duration : 24 ms (0.60 video frame)\nInterleave, preload duration : 491 ms\nWriting library : LAME3.98r\nEncoding settings : -m m -V 4 -q 2 -lowpass 16.5 --abr 64","torrent":{"xt":"urn:btih:7d7fa35a9f71a0f60b36e7fdca70eda939767394","amp;dn":"Nanny+-+Series+1+%28BBC+1981%29+DVD+Rip","amp;tr":["udp%3A%2F%2Ftracker.openbittorrent.com%3A80","udp%3A%2F%2Fopen.demonii.com%3A1337","udp%3A%2F%2Ftracker.coppersurfer.tk%3A6969","udp%3A%2F%2Fexodus.desync.com%3A6969"],"infoHash":"7d7fa35a9f71a0f60b36e7fdca70eda939767394","infoHashBuffer":{"type":"Buffer","data":[125,127,163,90,159,113,160,246,11,54,231,253,202,112,237,169,57,118,115,148]},"announce":[],"urlList":[]}}